<?xml version="1.0" standalone="no"?><svg xmlns="http://www.w3.org/2000/svg" viewBox="0 0 1440 320"><path fill="#0099ff" fill-opacity="1" d="M0,320L30,314.7C60,309,120,299,180,298.7C240,299,300,309,360,298.7C420,288,480,256,540,245.3C600,235,660,245,720,250.7C780,256,840,256,900,240C960,224,1020,192,1080,197.3C1140,203,1200,245,1260,250.7C1320,256,1380,224,1410,208L1440,192L1440,0L1410,0C1380,0,1320,0,1260,0C1200,0,1140,0,1080,0C1020,0,960,0,900,0C840,0,780,0,720,0C660,0,600,0,540,0C480,0,420,0,360,0C300,0,240,0,180,0C120,0,60,0,30,0L0,0Z"></path></svg>